<?xml version="1.0" encoding="UTF-8"?>
<!-- Generator: Adobe Illustrator 19.1.0, SVG Export Plug-In . SVG Version: 6.00 Build 0)  -->
<!DOCTYPE svg PUBLIC "-//W3C//DTD SVG 1.1//EN" "http://www.w3.org/Graphics/SVG/1.1/DTD/svg11.dtd">
<svg version="1.1" id="Layer_1" xmlns="http://www.w3.org/2000/svg" xmlns:xlink="http://www.w3.org/1999/xlink" x="0px" y="0px" width="320px" height="64px" viewBox="0 0 320 64" enable-background="new 0 0 320 64" xml:space="preserve">
<circle fill="#B3B8BB" cx="107.0499878" cy="21" r="2"/>
<path fill="#B3B8BB" d="M119.0500031,23h-2.7000122c0-6.1999989-5.1000061-11.3000002-11.3000031-11.3000002V9  C112.8499908,9,119.0500031,15.2999992,119.0500031,23z"/>
<path fill="#B3B8BB" d="M114.3499908,23h-2.6999969c0-3.6000004-3-6.6000004-6.6999969-6.6000004v-2.6999998  C110.2499847,13.6999998,114.3499908,17.8999996,114.3499908,23z"/>
<path fill="#B3B8BB" d="M88.0500107,11.0500031c-0.6000061,0.1999998-1.1999969,0.3999996-1.8999939,0.5  c0.6999969-0.3999996,1.1999969-1,1.3999939-1.8000002c-0.6000061,0.4000006-1.3000031,0.6000004-2.1000061,0.8000002  c-0.6000061-0.6000004-1.3999939-1-2.3000031-1c-1.8000031,0-3.3000031,1.3999996-3.3000031,3.3000002  c0,0.1999998,0,0.5,0.1000061,0.6999998c-2.6999969-0.1000004-5.1000061-1.3999996-6.8000031-3.3999996  c-0.3000031,0.5-0.3999939,1-0.3999939,1.5999994c0,1.0999994,0.6000061,2.0999994,1.3999939,2.6999998  c-0.5,0-1-0.1000004-1.5-0.3999996l0,0c0,1.5999994,1.1000061,2.8999996,2.6000061,3.2000008  c-0.3000031,0-0.5,0.0999985-0.8000031,0.0999985c-0.1999969,0-0.3999939,0-0.6000061,0  c0.3999939,1.3000011,1.6000061,2.2000008,3,2.3000011c-1.1000061,0.8999996-2.5,1.3999996-4.1000061,1.3999996  c-0.1999969,0-0.5,0-0.8000031,0c1.5,0.8999996,3.1999969,1.3999996,5.1000061,1.3999996c6,0,9.3000031-5,9.3000031-9.3000002  c0-0.0999994,0-0.3000002,0-0.4000006C87.0500107,12.2500029,87.7500076,11.6500034,88.0500107,11.0500031z"/>
<circle fill="#F49F38" cx="107.0499878" cy="53" r="2"/>
<path fill="#F49F38" d="M119.0500031,55h-2.7000122c0-6.2000008-5.1000061-11.2999992-11.3000031-11.2999992V41  C112.8499908,41,119.0500031,47.2999992,119.0500031,55z"/>
<path fill="#F49F38" d="M114.3499908,55h-2.6999969c0-3.5999985-3-6.5999985-6.6999969-6.5999985v-2.7000008  C110.2499847,45.7000008,114.3499908,50,114.3499908,55z"/>
<path fill="#50ABF1" d="M88.0500107,43.0500031c-0.6000061,0.1999969-1.1999969,0.4000015-1.8999939,0.5  c0.6999969-0.4000015,1.1999969-1,1.3999939-1.8000031c-0.6000061,0.4000015-1.3000031,0.5999985-2.1000061,0.8000031  c-0.6000061-0.5999985-1.3999939-1-2.3000031-1c-1.8000031,0-3.3000031,1.4000015-3.3000031,3.2999954  c0,0.2000046,0,0.5,0.1000061,0.7000046c-2.6999969-0.0999985-5.1000061-1.4000015-6.8000031-3.4000015  c-0.3000031,0.5-0.3999939,1-0.3999939,1.5999985c0,1.0999985,0.6000061,2.0999985,1.3999939,2.6999969  c-0.5,0-1-0.0999985-1.5-0.4000015l0,0c0,1.5999985,1.1000061,2.9000015,2.6000061,3.2000046  c-0.3000031,0-0.5,0.0999985-0.8000031,0.0999985c-0.1999969,0-0.3999939,0-0.6000061,0  c0.3999939,1.2999954,1.6000061,2.1999969,3,2.2999954c-1.1000061,0.9000015-2.5,1.4000015-4.1000061,1.4000015  c-0.1999969,0-0.5,0-0.8000031,0c1.5,0.9000015,3.1999969,1.4000015,5.1000061,1.4000015c6,0,9.3000031-5,9.3000031-9.2999954  c0-0.0999985,0-0.3000031,0-0.4000015C87.0500107,44.25,87.7500076,43.6500015,88.0500107,43.0500031z"/>
<path fill="#B3B8BB" d="M176.0500183,7.9000001c-4.3999939,0-8,3.5999999-8,7.9999995  c0,3.4000015,2.1000061,6.3000011,5.1000061,7.5000019c-0.1000061-0.7000008-0.2000122-1.6000004,0-2.3000011  c0.2000122-0.6000004,1-4,1-4s-0.2000122-0.5-0.2000122-1.1999998c0-1.1000004,0.6000061-1.8999996,1.3999939-1.8999996  c0.7000122,0,1,0.5,1,1.0999994c0,0.6999998-0.3999939,1.7000008-0.7000122,2.6000004  c-0.2000122,0.7999992,0.3999939,1.5,1.2000122,1.5c1.3999939,0,2.5-1.5,2.5-3.6000013  c0-1.8999996-1.3999939-3.1999998-3.3999939-3.1999998c-2.2999878,0-3.6000061,1.6999998-3.6000061,3.4000006  c0,0.6999998,0.2000122,1.4000006,0.6000061,1.9000006c0.1000061,0.1000004,0.1000061,0.1000004,0.1000061,0.1999989  c-0.1000061,0.2000008-0.2000122,0.8000011-0.2000122,0.8999996C172.75,19,172.6499939,19,172.4500122,18.8999996  c-1-0.3999996-1.6000061-1.8999996-1.6000061-3.0999994c0-2.5,1.8999939-4.8000002,5.2999878-4.8000002  c2.7999878,0,4.8999939,2,4.8999939,4.5999994c0,2.8000002-1.7999878,5.000001-4.1000061,5.000001  c-0.7999878,0-1.6000061-0.3999996-1.8999939-0.8999996c0,0-0.3999939,1.6000004-0.5,1.8999996  c-0.2000122,0.6999989-0.6000061,1.5-1,2.1000004c0.7999878,0.2000008,1.6000061,0.3999996,2.3999939,0.3999996  c4.3999939,0,8-3.6000004,8-8S180.4500122,7.9000001,176.0500183,7.9000001z"/>
<path fill="#B3B8BB" d="M271.9500122,15.8999996l8-4.3999996V10c0-0.6000004-0.3999939-1-1-1h-14c-0.6000061,0-1,0.3999996-1,1  v1.3999996L271.9500122,15.8999996z"/>
<path fill="#B3B8BB" d="M272.5499878,17.8999996C272.3499756,18,272.25,18,272.0499878,18s-0.2999878,0-0.5-0.1000004  l-7.5-4.1999998V22c0,0.6000004,0.3999939,1,1,1h14c0.6000061,0,1-0.3999996,1-1v-8.3000002L272.5499878,17.8999996z"/>
<path fill="#EB499E" d="M271.9500122,47.9000015l8-4.4000015V42c0-0.5999985-0.3999939-1-1-1h-14c-0.6000061,0-1,0.4000015-1,1  v1.4000015L271.9500122,47.9000015z"/>
<path fill="#EB499E" d="M272.5499878,49.9000015C272.3499756,50,272.25,50,272.0499878,50s-0.2999878,0-0.5-0.0999985  l-7.5-4.2000008V54c0,0.5999985,0.3999939,1,1,1h14c0.6000061,0,1-0.4000015,1-1v-8.2999992L272.5499878,49.9000015z"/>
<polygon fill="#33383E" points="20.3999939,46 19,44.5999985 15,48.5999985 13,46.5999985 11.6000061,48 15,51.4000015 "/>
<path id="White_2_" fill="#B3B8BB" d="M55.3000031,8H40.7000008C40.3000031,8,40,8.3000002,40,8.6999998v14.6999998  C40,23.7000008,40.3000031,24,40.7000008,24H48v-5h-2v-3h2v-2c0-2.1000004,1.2000008-3,3-3c0.9000015,0,1.8000031,0,2,0v3h-1  c-0.5999985,0-1,0.3999996-1,1v1h2.6000023L53,19h-2v5h4.3000031C55.7000008,24,56,23.7000008,56,23.2999992V8.6999998  C56,8.3000002,55.7000008,8,55.3000031,8z"/>
<path id="White_1_" fill="#435E9F" d="M55.3000031,40H40.7000008C40.3000031,40,40,40.2999992,40,40.7000008v14.7000008  C40,55.7000008,40.3000031,56,40.7000008,56H48v-5h-2v-3h2v-2c0-2.0999985,1.2000008-3,3-3c0.9000015,0,1.8000031,0,2,0v3h-1  c-0.5999985,0-1,0.4000015-1,1v1h2.6000023L53,51h-2v5h4.3000031C55.7000008,56,56,55.7000008,56,55.2999992V40.7000008  C56,40.2999992,55.7000008,40,55.3000031,40z"/>
<path fill="#D2D4D6" d="M22.0000019,22v-9h-5l-3.000001-3h-4v12H22.0000019z"/>
<path fill="#4E5359" d="M243.6000061,8.3500004c-1.5,0-2.8000031,0.8000002-3.6000061,2  c-0.8000031-1.1999998-2.1000061-2-3.6000061-2C234,8.3500004,232,10.3500004,232,12.75c0,4.4000015,8,10.8999996,8,10.8999996  s8-6.5,8-10.8999996C248,10.3500004,246,8.3500004,243.6000061,8.3500004z"/>
<path fill="#B3B8BB" d="M144.0500031,15v2.3999996h4.0999908c-0.1999969,1-1.1999969,3-4,3  c-2.3999939,0-4.2999878-2-4.2999878-4.3999996s2-4.4000006,4.2999878-4.4000006  c1.4000092,0,2.3000031,0.5999994,2.8000031,1.0999994l1.9000092-1.7999992C147.6499939,9.6999998,146.0500031,9,144.1499939,9  c-3.8999939,0-7,3.1000004-7,7s3.1000061,7,7,7c4,0,6.7000122-2.7999992,6.7000122-6.7999992  c0-0.500001,0-0.8000011-0.1000061-1.2000008H144.0500031L144.0500031,15z"/>
<g>
	<path fill="#4E5359" d="M215,11h-10.5L204,8.8000002C203.8999939,8.3000002,203.5,8,203,8h-3v2h2.1999969L204,18.2000008   C204.1000061,18.7000008,204.5,19,205,19h8c0.3999939,0,0.8000031-0.2999992,0.8999939-0.7000008l2-5.999999   C216.1000061,11.8000002,215.8000031,11,215,11z"/>
	<circle fill="#4E5359" cx="205" cy="22" r="2"/>
	<circle fill="#4E5359" cx="213" cy="22" r="2"/>
</g>
<path fill="#4F545A" d="M314,22c-0.2999878,0-0.5-0.1000004-0.7000122-0.2999992L304,12.3999987l-9.2999878,9.3000021  c-0.4000244,0.3999996-1,0.3999996-1.4000244,0c-0.3999939-0.3999996-0.3999939-1,0-1.3999996l10-10.000001  c0.4000244-0.3999996,1-0.3999996,1.4000244,0l10,10.000001c0.3999939,0.3999996,0.3999939,1,0,1.3999996  C314.5,21.8999996,314.2999878,22,314,22z"/>
</svg>